<?xml version="1.0" encoding="UTF-8" standalone="no"?>
<svg width="200" height="200" viewBox="0 0 200 200" fill="none" xmlns="http://www.w3.org/2000/svg">
  <rect width="200" height="200" fill="none"/>
  <g>
    <path d="M100 20C55.8172 20 20 55.8172 20 100C20 144.183 55.8172 180 100 180C144.183 180 180 144.183 180 100C180 55.8172 144.183 20 100 20Z" fill="#6D28D9" fill-opacity="0.1" stroke="#6D28D9" stroke-width="4"/>
    <path d="M70 60V160" stroke="#6D28D9" stroke-width="8" stroke-linecap="round"/>
    <path d="M90 80V160" stroke="#6D28D9" stroke-width="8" stroke-linecap="round"/>
    <path d="M110 100V160" stroke="#6D28D9" stroke-width="8" stroke-linecap="round"/>
    <path d="M130 120V160" stroke="#6D28D9" stroke-width="8" stroke-linecap="round"/>
    <path d="M150 140V160" stroke="#6D28D9" stroke-width="8" stroke-linecap="round"/>
    <path d="M50 40V160" stroke="#6D28D9" stroke-width="8" stroke-linecap="round"/>
    <path d="M40 160H160" stroke="#6D28D9" stroke-width="8" stroke-linecap="round"/>
    <circle cx="50" cy="40" r="8" fill="#06B6D4"/>
    <circle cx="70" cy="60" r="8" fill="#06B6D4"/>
    <circle cx="90" cy="80" r="8" fill="#06B6D4"/>
    <circle cx="110" cy="100" r="8" fill="#06B6D4"/>
    <circle cx="130" cy="120" r="8" fill="#06B6D4"/>
    <circle cx="150" cy="140" r="8" fill="#06B6D4"/>
  </g>
</svg>
