<?xml version="1.0" encoding="UTF-8" standalone="no"?>
<svg width="400" height="300" xmlns="http://www.w3.org/2000/svg">
  <!-- Background -->
  <rect width="400" height="300" fill="#f8f9fa" />
  
  <!-- Border -->
  <rect x="1" y="1" width="398" height="298" fill="none" stroke="#dee2e6" stroke-width="2" />
  
  <!-- Image icon -->
  <g transform="translate(150, 100)">
    <path d="M32 2H4C2.9 2 2 2.9 2 4v24c0 1.1.9 2 2 2h28c1.1 0 2-.9 2-2V4c0-1.1-.9-2-2-2zm0 26H4V4h28v24zM12 12l5 6.01L19.5 15l7.5 10H5l7-9.99z" fill="#adb5bd" transform="scale(3)" />
  </g>
  
  <!-- Text -->
  <text x="200" y="220" font-family="Arial, sans-serif" font-size="16" text-anchor="middle" fill="#6c757d">Không có hình ảnh</text>
</svg>
